<?xml version="1.0" standalone="no"?>
<!DOCTYPE svg PUBLIC "-//W3C//DTD SVG 20010904//EN"
 "http://www.w3.org/TR/2001/REC-SVG-20010904/DTD/svg10.dtd">
<svg version="1.0" xmlns="http://www.w3.org/2000/svg"
 width="476.000000pt" height="476.000000pt" viewBox="0 0 476.000000 476.000000"
 preserveAspectRatio="xMidYMid meet">
<metadata>
Created by potrace 1.14, written by Peter Selinger 2001-2017
</metadata>
<g transform="translate(0.000000,476.000000) scale(0.100000,-0.100000)"
fill="#000000" stroke="none">
<path d="M2209 4756 c-2 -2 -35 -6 -74 -10 -38 -3 -81 -8 -95 -10 -14 -3 -54
-10 -90 -16 -378 -64 -768 -247 -1095 -512 -60 -49 -277 -267 -311 -313 -16
-22 -37 -49 -47 -60 -77 -85 -248 -381 -321 -555 -44 -106 -108 -324 -132
-445 -4 -22 -8 -44 -9 -50 -36 -157 -41 -567 -9 -760 12 -72 16 -95 35 -180
43 -195 150 -465 262 -661 31 -55 150 -232 179 -266 13 -15 34 -42 48 -60 33
-44 276 -287 319 -318 19 -14 58 -44 87 -67 29 -24 55 -43 58 -43 2 0 33 -19
68 -42 99 -67 114 -75 263 -148 121 -59 356 -148 435 -164 14 -3 66 -14 115
-25 175 -38 305 -49 530 -46 195 3 225 6 390 36 394 72 801 264 1105 524 82
70 271 267 333 347 190 246 340 543 421 836 23 81 47 187 51 222 6 46 18 128
22 145 9 39 10 431 1 500 -5 39 -10 84 -12 100 -26 218 -103 467 -216 700
-127 260 -254 440 -460 645 -203 204 -397 342 -655 466 -113 54 -352 143 -425
158 -14 3 -65 14 -115 25 -49 10 -115 22 -145 26 -30 4 -64 9 -75 12 -23 5
-431 14 -436 9z"/>
</g>
</svg>
